# File created by Blade
# Date/Time:  Tue Jan 27 17:16:27 2015
# Frame Rate: 120.000 fps
#------------------------------------------------------
:FULLY-SPECIFIED
:DEGREES
3406
root -3.907016 37.955215 3.823676 97.802699 52.341916 83.171859
Spine 4.705248 -2.693246 -16.846850
Head -3.262101 23.048139 -23.202575
LeftShoulder 9.136685 -19.351477 5.209265
LeftArm 30.631246 -13.221134 -59.795323
LeftForeArm -4.105207 -0.000000 60.772495
LeftHand -7.615355 -0.000000 48.992061
LeftHandThumb1 -26.253704 0.000000 33.147579
RightShoulder -0.883587 -18.473653 -10.533871
RightArm 0.392906 -8.455246 48.321583
RightForeArm -161.746692 -0.000000 27.185409
RightHand -1.181881 -0.000000 3.438152
RightHandThumb1 -24.326973 -0.000000 -32.862282
LeftUpLeg -47.925855 37.160288 18.268417
LeftLeg 37.280781 -0.000000 -0.000000
LeftFoot 11.789366 3.860445 -31.251004
LeftToeBase 17.465935 -0.000000 -0.000000
RightUpLeg -35.083837 -39.507593 -12.750350
RightLeg 26.705007 -0.000000 -0.000000
RightFoot -26.664292 -25.769862 11.495372
RightToeBase 2.406825 -0.000000 -0.000000
3407
root -3.894555 37.963218 3.819020 97.813174 52.242123 83.227244
Spine 4.740933 -2.673516 -16.909633
Head -3.037751 23.057342 -23.390259
LeftShoulder 9.152779 -19.380719 5.082288
LeftArm 30.667472 -13.170097 -59.774736
LeftForeArm -4.083246 -0.000000 60.791286
LeftHand -7.603471 -0.000000 48.831868
LeftHandThumb1 -26.253704 0.000000 33.147579
RightShoulder -0.882089 -18.505195 -10.646509
RightArm 0.315896 -8.531322 48.234947
RightForeArm -161.493688 -0.000000 27.130255
RightHand -1.267775 -0.000000 3.555705
RightHandThumb1 -24.326973 -0.000000 -32.862282
LeftUpLeg -46.461995 36.347809 19.579365
LeftLeg 32.688312 -0.000000 -0.000000
LeftFoot 10.781857 5.604650 -30.048289
LeftToeBase 17.440589 -0.000000 -0.000000
RightUpLeg -35.041028 -39.655952 -12.849643
RightLeg 26.701568 -0.000000 -0.000000
RightFoot -26.629799 -25.705908 11.448521
RightToeBase 2.356796 -0.000000 -0.000000
3408
root -3.880319 37.969207 3.811576 97.799489 52.152189 83.260060
Spine 4.775833 -2.649617 -16.958922
Head -2.822683 23.119030 -23.578221
LeftShoulder 9.162469 -19.385541 4.956920
LeftArm 30.737738 -13.130692 -59.756723
LeftForeArm -4.095066 -0.000000 60.795741
LeftHand -7.605726 -0.000000 48.765274
LeftHandThumb1 -26.253704 0.000000 33.147579
RightShoulder -0.899578 -18.552683 -10.744186
RightArm 0.256662 -8.477763 48.138316
RightForeArm -161.340115 0.000000 27.059381
RightHand -1.295878 -0.000000 3.562119
RightHandThumb1 -24.326973 -0.000000 -32.862282
LeftUpLeg -44.975846 35.429158 20.981727
LeftLeg 28.310536 -0.000000 -0.000000
LeftFoot 9.514279 7.569735 -28.630839
LeftToeBase 17.264329 -0.000000 -0.000000
RightUpLeg -35.005851 -39.790578 -12.943582
RightLeg 26.716524 -0.000000 -0.000000
RightFoot -26.603990 -25.660406 11.413064
RightToeBase 2.292207 -0.000000 -0.000000
3409
root -3.867299 37.973763 3.802761 97.781871 52.073652 83.272313
Spine 4.795447 -2.630626 -16.989339
Head -2.654684 23.133494 -23.780096
LeftShoulder 9.167451 -19.390635 4.824383
LeftArm 30.808803 -13.103235 -59.736743
LeftForeArm -4.104053 -0.000000 60.786486
LeftHand -7.541562 0.000000 48.658283
LeftHandThumb1 -26.253704 0.000000 33.147579
RightShoulder -0.878111 -18.598665 -10.853842
RightArm 0.123497 -8.409223 48.058226
RightForeArm -161.030322 -0.000000 27.046898
RightHand -1.251026 -0.000000 3.556666
RightHandThumb1 -24.326973 -0.000000 -32.862282
LeftUpLeg -43.453426 34.374939 22.501243
LeftLeg 24.151055 -0.000000 -0.000000
LeftFoot 7.771629 9.720705 -27.662017
LeftToeBase 17.582108 -0.000000 -0.000000
RightUpLeg -34.997572 -39.898789 -13.017315
RightLeg 26.736415 -0.000000 -0.000000
RightFoot -26.587606 -25.647425 11.374971
RightToeBase 2.257512 -0.000000 -0.000000
3410
root -3.849875 37.973599 3.789789 97.664114 52.038269 83.216664
Spine 4.843107 -2.566051 -16.954143
Head -2.479597 23.150451 -24.031996
LeftShoulder 9.176503 -19.371887 4.688814
LeftArm 30.886694 -13.110609 -59.740306
LeftForeArm -4.127447 -0.000000 60.789795
LeftHand -7.448352 -0.000000 48.570914
LeftHandThumb1 -26.253704 0.000000 33.147579
RightShoulder -0.864386 -18.637435 -10.985924
RightArm 0.022843 -8.334716 47.959966
RightForeArm -160.780533 -0.000000 26.993582
RightHand -1.164305 -0.000000 3.609887
RightHandThumb1 -24.326973 -0.000000 -32.862282
LeftUpLeg -42.050745 33.438729 23.979174
LeftLeg 20.464793 -0.000000 -0.000000
LeftFoot 5.786583 11.966985 -26.611362
LeftToeBase 17.263957 -0.000000 -0.000000
RightUpLeg -34.961833 -39.981971 -13.067516
RightLeg 26.776318 -0.000000 -0.000000
RightFoot -26.610054 -25.635875 11.373688
RightToeBase 2.192887 -0.000000 -0.000000
3411
root -3.834139 37.972443 3.774983 97.534394 51.994690 83.133929
Spine 4.877402 -2.500371 -16.938056
Head -2.311051 23.239857 -24.241156
LeftShoulder 9.187697 -19.366503 4.574451
LeftArm 30.944692 -13.130333 -59.754011
LeftForeArm -4.121684 -0.000000 60.786366
LeftHand -7.357321 0.000000 48.473647
LeftHandThumb1 -26.253704 0.000000 33.147579
RightShoulder -0.845036 -18.672365 -11.102091
RightArm -0.078876 -8.299540 47.863016
RightForeArm -160.427177 -0.000000 26.881667
RightHand -1.317805 0.000000 3.669244
RightHandThumb1 -24.326973 -0.000000 -32.862282
LeftUpLeg -40.686948 32.461441 25.476040
LeftLeg 17.118845 -0.000000 -0.000000
LeftFoot 3.403007 14.223885 -26.617859
LeftToeBase 16.529059 -0.000000 -0.000000
RightUpLeg -34.958567 -40.077049 -13.096162
RightLeg 26.803846 -0.000000 -0.000000
RightFoot -26.587897 -25.649397 11.287740
RightToeBase 2.103882 -0.000000 -0.000000
3412
root -3.812064 37.967119 3.755222 97.313996 51.992133 82.991761
Spine 4.932816 -2.408478 -16.842301
Head -2.174808 23.283348 -24.538800
LeftShoulder 9.203591 -19.359240 4.437992
LeftArm 30.976109 -13.173879 -59.766066
LeftForeArm -4.076925 -0.000000 60.831969
LeftHand -7.478711 -0.000000 48.442067
LeftHandThumb1 -26.253704 0.000000 33.147579
RightShoulder -0.826036 -18.733782 -11.256495
RightArm -0.142525 -8.211896 47.742289
RightForeArm -159.996929 -0.000000 26.804514
RightHand -1.189064 -0.000000 3.699800
RightHandThumb1 -24.326973 -0.000000 -32.862282
LeftUpLeg -39.517287 31.777784 26.782473
LeftLeg 14.268023 -0.000000 -0.000000
LeftFoot 1.127904 16.130884 -26.601059
LeftToeBase 14.787237 -0.000000 -0.000000
RightUpLeg -34.920715 -40.153900 -13.105955
RightLeg 26.828590 -0.000000 -0.000000
RightFoot -26.573290 -25.635806 11.156170
RightToeBase 2.038778 -0.000000 -0.000000
3413
root -3.789771 37.961480 3.731757 97.019669 51.971488 82.771161
Spine 4.985493 -2.291713 -16.768949
Head -2.024179 23.369863 -24.817537
LeftShoulder 9.214719 -19.368856 4.328184
LeftArm 30.965218 -13.232711 -59.787949
LeftForeArm -4.104810 0.000000 60.828632
LeftHand -7.309877 -0.000000 48.349035
LeftHandThumb1 -26.253704 0.000000 33.147579
RightShoulder -0.804026 -18.797214 -11.395972
RightArm -0.200315 -8.131857 47.595516
RightForeArm -159.656310 -0.000000 26.722067
RightHand -1.179171 -0.000000 3.660234
RightHandThumb1 -24.326973 -0.000000 -32.862282
LeftUpLeg -38.483476 31.298231 27.903674
LeftLeg 11.819881 -0.000000 -0.000000
LeftFoot -1.263498 17.666239 -27.218906
LeftToeBase 13.640350 -0.000000 -0.000000
RightUpLeg -34.906222 -40.218454 -13.119288
RightLeg 26.862163 -0.000000 -0.000000
RightFoot -26.568041 -25.600802 11.008390
RightToeBase 2.028022 -0.000000 -0.000000
3414
root -3.770317 37.957154 3.707980 96.694064 51.921841 82.491320
Spine 5.020660 -2.160025 -16.748988
Head -1.895582 23.493186 -25.062878
LeftShoulder 9.213229 -19.382543 4.257358
LeftArm 30.959904 -13.290575 -59.814239
LeftForeArm -4.123228 0.000000 60.841171
LeftHand -7.313708 -0.000000 48.326720
LeftHandThumb1 -26.253704 0.000000 33.147579
RightShoulder -0.775197 -18.848994 -11.510104
RightArm -0.262637 -8.026788 47.460042
RightForeArm -159.379980 0.000000 26.662578
RightHand -1.062628 0.000000 3.713063
RightHandThumb1 -24.326973 -0.000000 -32.862282
LeftUpLeg -37.628230 31.055186 28.763629
LeftLeg 9.739163 -0.000000 -0.000000
LeftFoot -3.394469 18.655725 -27.217125
LeftToeBase 12.720104 -0.000000 -0.000000
RightUpLeg -34.933232 -40.274976 -13.128979
RightLeg 26.877760 -0.000000 -0.000000
RightFoot -26.529107 -25.562113 10.829619
RightToeBase 1.946564 -0.000000 -0.000000
3415
root -3.753978 37.953275 3.685228 96.367588 51.863286 82.197989
Spine 5.047396 -2.045477 -16.743329
Head -1.784970 23.604869 -25.314989
LeftShoulder 9.202698 -19.415402 4.173201
LeftArm 30.937589 -13.335125 -59.785794
LeftForeArm -4.152484 -0.000000 60.842751
LeftHand -7.322478 0.000000 48.311238
LeftHandThumb1 -26.253704 0.000000 33.147579
RightShoulder -0.751968 -18.886500 -11.608324
RightArm -0.289888 -7.956246 47.315571
RightForeArm -159.113978 0.000000 26.550019
RightHand -1.120588 -0.000000 3.799029
RightHandThumb1 -24.326973 -0.000000 -32.862282
LeftUpLeg -37.058078 31.112026 29.307867
LeftLeg 8.087667 -0.000000 -0.000000
LeftFoot -4.705548 19.353841 -26.102288
LeftToeBase 12.936515 -0.000000 -0.000000
RightUpLeg -34.974165 -40.304376 -13.140306
RightLeg 26.903268 -0.000000 -0.000000
RightFoot -26.510527 -25.534257 10.688423
RightToeBase 1.936606 -0.000000 -0.000000
3416
root -3.742225 37.952031 3.662019 96.035194 51.761791 81.881348
Spine 5.076116 -1.944209 -16.802314
Head -1.709724 23.731526 -25.555795
LeftShoulder 9.192236 -19.439427 4.119757
LeftArm 30.926956 -13.427649 -59.770419
LeftForeArm -4.140866 0.000000 60.839902
LeftHand -7.366663 -0.000000 48.334119
LeftHandThumb1 -26.253704 0.000000 33.147579
RightShoulder -0.739231 -18.874560 -11.661429
RightArm -0.331817 -7.881040 47.154822
RightForeArm -158.794502 -0.000000 26.492231
RightHand -1.096765 -0.000000 3.803537
RightHandThumb1 -24.326973 -0.000000 -32.862282
LeftUpLeg -36.654850 31.284873 29.650143
LeftLeg 6.850262 -0.000000 -0.000000
LeftFoot -5.239425 19.663010 -24.012505
LeftToeBase 12.473816 -0.000000 -0.000000
RightUpLeg -35.017093 -40.274897 -13.214949
RightLeg 26.904721 -0.000000 -0.000000
RightFoot -26.488047 -25.531043 10.558769
RightToeBase 1.902265 -0.000000 -0.000000
